<svg t="1611074237663" class="icon" viewBox="0 0 1024 1024" version="1.1" xmlns="http://www.w3.org/2000/svg" p-id="1106"
    width="200" height="200">
    <path
        d="M512 477.866667c140.8-128 213.333333-192 213.333333-277.333334C725.333333 136.533333 674.133333 85.333333 605.866667 85.333333c-38.4 0-72.533333 17.066667-93.866667 42.666667-25.6-29.866667-59.733333-42.666667-98.133333-42.666667C349.866667 85.333333 298.666667 136.533333 298.666667 200.533333c0 81.066667 72.533333 149.333333 213.333333 277.333334m-34.133333 34.133333c-128-140.8-192-213.333333-277.333334-213.333333C136.533333 298.666667 85.333333 349.866667 85.333333 413.866667c0 38.4 17.066667 72.533333 42.666667 93.866666-29.866667 25.6-42.666667 59.733333-42.666667 98.133334C85.333333 674.133333 136.533333 725.333333 204.8 725.333333c76.8 0 145.066667-72.533333 273.066667-213.333333m68.266666 0c128 140.8 192 213.333333 277.333334 213.333333 64 0 115.2-51.2 115.2-119.466666 0-38.4-17.066667-72.533333-42.666667-93.866667 29.866667-25.6 42.666667-59.733333 42.666667-98.133333C938.666667 349.866667 887.466667 298.666667 819.2 298.666667c-76.8 0-145.066667 72.533333-273.066667 213.333333m-34.133333 34.133333c-140.8 128-213.333333 192-213.333333 277.333334C298.666667 887.466667 349.866667 938.666667 418.133333 938.666667c38.4 0 72.533333-17.066667 93.866667-42.666667 25.6 29.866667 59.733333 42.666667 98.133333 42.666667 64 0 115.2-51.2 115.2-119.466667 0-76.8-72.533333-145.066667-213.333333-273.066667z"
        p-id="1107"></path>
</svg>